<svg id="Layer_1" data-name="Layer 1" xmlns="http://www.w3.org/2000/svg" xmlns:xlink="http://www.w3.org/1999/xlink" viewBox="0 0 227.92 185.68"><defs><style>.cls-1{fill:url(#linear-gradient);}.cls-2{fill:url(#linear-gradient-2);}.cls-3{fill:url(#linear-gradient-3);}.cls-4{fill:url(#linear-gradient-4);}.cls-5{fill:url(#linear-gradient-5);}.cls-6{fill:url(#Orange_Yellow);}.cls-7{fill:url(#Orange_Yellow-2);}.cls-8{fill:url(#Orange_Yellow-3);}.cls-9{fill:url(#Orange_Yellow-4);}.cls-10{fill:url(#Orange_Yellow-5);}.cls-11{fill:url(#Orange_Yellow-6);}.cls-12{fill:url(#radial-gradient);}.cls-13{fill:url(#radial-gradient-2);}.cls-14{fill:url(#radial-gradient-3);}.cls-15{fill:none;}</style><linearGradient id="linear-gradient" x1="226.03" y1="298.65" x2="350.59" y2="298.65" gradientUnits="userSpaceOnUse"><stop offset="0" stop-color="#0ccc6c"/><stop offset="0.11" stop-color="#15b16c"/><stop offset="0.29" stop-color="#228d6c"/><stop offset="0.47" stop-color="#2b706b"/><stop offset="0.65" stop-color="#325c6b"/><stop offset="0.82" stop-color="#37506b"/><stop offset="1" stop-color="#384c6b"/></linearGradient><linearGradient id="linear-gradient-2" x1="263.43" y1="337.69" x2="266.64" y2="337.69" xlink:href="#linear-gradient"/><linearGradient id="linear-gradient-3" x1="263.43" y1="326.91" x2="324.6" y2="326.91" xlink:href="#linear-gradient"/><linearGradient id="linear-gradient-4" x1="299.86" y1="371.9" x2="328.67" y2="371.9" xlink:href="#linear-gradient"/><linearGradient id="linear-gradient-5" x1="325.46" y1="360.51" x2="350.45" y2="360.51" xlink:href="#linear-gradient"/><linearGradient id="Orange_Yellow" x1="90.34" y1="17.03" x2="106" y2="17.03" gradientUnits="userSpaceOnUse"><stop offset="0" stop-color="#ffef26"/><stop offset="0.02" stop-color="#ffea21"/><stop offset="0.1" stop-color="#fed70f"/><stop offset="0.19" stop-color="#fdcc04"/><stop offset="0.28" stop-color="#fdc800"/><stop offset="0.67" stop-color="#f18f34"/><stop offset="0.89" stop-color="#e95f32"/><stop offset="1" stop-color="#e3312d"/></linearGradient><linearGradient id="Orange_Yellow-2" x1="66.91" y1="33.58" x2="83.1" y2="33.58" xlink:href="#Orange_Yellow"/><linearGradient id="Orange_Yellow-3" x1="55.1" y1="59.18" x2="69.8" y2="59.18" xlink:href="#Orange_Yellow"/><linearGradient id="Orange_Yellow-4" x1="55.45" y1="89.2" x2="68.03" y2="89.2" xlink:href="#Orange_Yellow"/><linearGradient id="Orange_Yellow-5" x1="119.79" y1="11.87" x2="135.92" y2="11.87" xlink:href="#Orange_Yellow"/><linearGradient id="Orange_Yellow-6" x1="150" y1="21.46" x2="166.21" y2="21.46" xlink:href="#Orange_Yellow"/><radialGradient id="radial-gradient" cx="203.25" cy="328.33" fx="196.85705439422165" fy="340.7382666349849" r="68.52" gradientUnits="userSpaceOnUse"><stop offset="0" stop-color="#0ccc6c"/><stop offset="0.22" stop-color="#18a96c"/><stop offset="0.58" stop-color="#29776b"/><stop offset="0.85" stop-color="#34586b"/><stop offset="1" stop-color="#384c6b"/></radialGradient><radialGradient id="radial-gradient-2" cx="407.7" cy="328.33" fx="401.3131090817216" r="68.52" gradientTransform="matrix(-1, 0, 0, 1, 783.28, 0)" xlink:href="#radial-gradient"/><radialGradient id="radial-gradient-3" cx="291.19" cy="404.53" fx="291.190185546875" fy="404.529296875" r="44.52" xlink:href="#radial-gradient"/></defs><path class="cls-1" d="M350.59,258.81l-13.16,13a49.26,49.26,0,0,0-34.33-13.85h-7.23a49.44,49.44,0,0,0-49.44,49.45v52.88A72.7,72.7,0,0,1,350.59,258.81Z" transform="translate(-175.46 -235.49)"/><path class="cls-2" d="M263.43,333.78a43,43,0,0,0,3.21,7.82Z" transform="translate(-175.46 -235.49)"/><path class="cls-3" d="M318.26,314v10.55a4.08,4.08,0,0,1-4.08,4.08H281.46v51.76a72.27,72.27,0,0,1-18-7.06V307.8a34.36,34.36,0,0,1,34.36-34.36h.94a34.53,34.53,0,0,1,3.54.18l.68.08c.63.07,1.25.17,1.86.28l.84.16.8.17.69.17.84.22c.61.17,1.21.36,1.81.56.45.15.9.32,1.35.49s1.17.47,1.73.73c.26.11.5.23.75.35l.75.37.73.39.66.36c1,.57,1.94,1.18,2.86,1.83q.67.48,1.32,1c.52.41,1,.82,1.51,1.26l.65.59.65.62.37.37a3.19,3.19,0,0,1,.26.26c.21.22.42.43.62.65l.6.67-12.67,13.27-.1-.09c-.15-.15-.31-.29-.48-.44l-.09-.07c-.16-.14-.32-.28-.49-.41l-.25-.2c-.17-.13-.35-.27-.53-.39s-.36-.26-.55-.38-.32-.22-.49-.32a16.41,16.41,0,0,0-1.65-.9c-.26-.13-.53-.25-.8-.36l-.55-.22-.45-.17a14.69,14.69,0,0,0-1.51-.46c-.29-.08-.58-.14-.87-.2-.49-.1-1-.18-1.48-.24l-.36,0a17.73,17.73,0,0,0-1.79-.09,18,18,0,0,0-18,16.43h32.65A4.08,4.08,0,0,1,318.26,314Z" transform="translate(-175.46 -235.49)"/><path class="cls-4" d="M318.65,361.09l10,16.51a57.06,57.06,0,0,1-23.7,5.12c-1.72,0-3.43-.08-5.11-.23V363.8c1.2.11,2.42.16,3.65.16A41.22,41.22,0,0,0,318.65,361.09Z" transform="translate(-175.46 -235.49)"/><path class="cls-5" d="M350.45,360.36a58.37,58.37,0,0,1-13.89,12.86l-11.1-15.58a42.13,42.13,0,0,0,10.88-9.83Z" transform="translate(-175.46 -235.49)"/><polygon class="cls-6" points="105.63 11.64 103.17 16.77 106 21.7 100.37 20.95 96.56 25.16 95.53 19.57 90.34 17.25 95.34 14.54 95.95 8.89 100.07 12.81 105.63 11.64"/><polygon class="cls-7" points="81 26.66 79.47 32.13 83.1 36.5 77.42 36.73 74.39 41.55 72.42 36.22 66.91 34.82 71.37 31.29 70.99 25.62 75.72 28.77 81 26.66"/><polygon class="cls-8" points="69.8 62 64.63 62.12 61.8 66.45 60.09 61.57 55.1 60.22 59.21 57.08 58.95 51.91 63.21 54.86 68.04 53.02 66.56 57.97 69.8 62"/><polygon class="cls-9" points="57.45 94.88 58.43 90.59 55.45 87.36 59.83 86.95 61.98 83.12 63.71 87.16 68.03 88.02 64.72 90.92 65.23 95.29 61.45 93.04 57.45 94.88"/><polygon class="cls-10" points="135.92 10.85 131.33 14.21 131.5 19.89 126.89 16.57 121.54 18.49 123.27 13.07 119.79 8.58 125.47 8.55 128.68 3.85 130.46 9.25 135.92 10.85"/><polygon class="cls-11" points="166.21 22.74 160.69 24.09 158.67 29.41 155.68 24.57 150 24.3 153.67 19.95 152.18 14.47 157.44 16.62 162.2 13.51 161.78 19.18 166.21 22.74"/><path class="cls-12" d="M175.46,330.22v-3.89q10.75-1.89,16.68-7.87t5.93-13c0-3.46-.78-8.35-2.34-14.7a69.61,69.61,0,0,1-2.34-16.38q0-14.05,10.55-25.45t27.1-13.4v3.78q-11.35,2-17.28,8.57a22,22,0,0,0-5.93,15.24,80.59,80.59,0,0,0,2,15.69,81.71,81.71,0,0,1,2,16.09q0,9.86-7.07,19T183.62,328q14.35,5.78,21.32,14.74t7,18.93a82.4,82.4,0,0,1-2,15.73,82.26,82.26,0,0,0-2,15.64,22.42,22.42,0,0,0,5.63,15.1q5.63,6.51,17.48,9.51v3.48q-16.64-2.28-27-13.49t-10.41-25.25a72.16,72.16,0,0,1,2.3-16.29q2.28-9.61,2.29-14.39a19.2,19.2,0,0,0-5.63-13.4Q186.92,332.31,175.46,330.22Z" transform="translate(-175.46 -235.49)"/><path class="cls-13" d="M386.29,338.34a19.2,19.2,0,0,0-5.63,13.4q0,4.77,2.29,14.39a72.08,72.08,0,0,1,2.29,16.29q0,14-10.41,25.25t-27,13.49v-3.48q11.85-3,17.48-9.51a22.47,22.47,0,0,0,5.63-15.1,82.42,82.42,0,0,0-2-15.64,83.22,83.22,0,0,1-2-15.73q0-10,7-18.93T395.2,328q-14-5.08-21.12-14.2t-7.07-19a82.48,82.48,0,0,1,2-16.09,80.72,80.72,0,0,0,2-15.69,22.07,22.07,0,0,0-5.93-15.24q-5.93-6.57-17.28-8.57v-3.78q16.53,2,27.09,13.4t10.56,25.45a70.14,70.14,0,0,1-2.34,16.38c-1.56,6.35-2.34,11.24-2.34,14.7q0,7.06,5.92,13t16.69,7.87v3.89Q391.91,332.31,386.29,338.34Z" transform="translate(-175.46 -235.49)"/><path class="cls-14" d="M246.4,411.84a8,8,0,0,1-2.14,2.23,9.21,9.21,0,0,1-5.54,1.78,8.75,8.75,0,0,1-6.45-2.58q-3-3-3-8.64a11.66,11.66,0,0,1,3-8.35,8.85,8.85,0,0,1,6.66-2.87,11.37,11.37,0,0,1,3.28.53c1.15.35,1.74.53,1.78.53.51,0,.85-.34,1-1l.76-.06.23,7.06-.61.06q-1.41-6.18-6.24-6.18a8.3,8.3,0,0,0-2.81.5,6.51,6.51,0,0,0-2.49,1.58c-1.62,1.82-2.45,4.57-2.46,8.26,0,3.28.86,5.84,2.66,7.68a7.43,7.43,0,0,0,5.51,2.34,8.43,8.43,0,0,0,6.5-3.4Z" transform="translate(-175.46 -235.49)"/><path class="cls-14" d="M260.52,408a8.81,8.81,0,0,1-1.53,5.07,5.57,5.57,0,0,1-9.17.44,8.66,8.66,0,0,1-1.73-5.51,8.54,8.54,0,0,1,1.64-5.3,5.34,5.34,0,0,1,4.43-2.26,5.83,5.83,0,0,1,4.6,2A8.25,8.25,0,0,1,260.52,408Zm-1.7.91a9.74,9.74,0,0,0-1.38-5.39,4,4,0,0,0-3.49-2.14,3.75,3.75,0,0,0-2.75,1.14,5.36,5.36,0,0,0-1.35,3.84,12,12,0,0,0,1.09,5.54q1.31,2.84,3.78,2.84a3.54,3.54,0,0,0,2.57-1.06Q258.82,412.2,258.82,408.91Z" transform="translate(-175.46 -235.49)"/><path class="cls-14" d="M275.19,414.09l-3.72,1.62v-2.49l-.38.11a4.41,4.41,0,0,1-1.29,1.5,4.2,4.2,0,0,1-2.55.85,4.46,4.46,0,0,1-3-1.12q-2.14-1.85-2.14-6.06a9.08,9.08,0,0,1,1.76-5.54,5,5,0,0,1,4.07-2.4,5.23,5.23,0,0,1,3.51,1.87V397.1c0-1.33-.56-2-1.7-2a3.27,3.27,0,0,0-.52,0v-.56a31.63,31.63,0,0,0,3.75-1.32v18.08a2.46,2.46,0,0,0,.44,1.7,2.14,2.14,0,0,0,1.75.47Zm-3.72-2.66v-6.18a3.81,3.81,0,0,0-1.14-2.79,3.22,3.22,0,0,0-2.28-1,3.72,3.72,0,0,0-2.79,1.23,6.78,6.78,0,0,0-1.49,4.75,8.12,8.12,0,0,0,1.58,5.41,3.39,3.39,0,0,0,3.11,1.35,3.56,3.56,0,0,0,1.93-1A3.11,3.11,0,0,0,271.47,411.43Z" transform="translate(-175.46 -235.49)"/><path class="cls-14" d="M287.41,410.49a8.62,8.62,0,0,1-1.67,3.08,5.34,5.34,0,0,1-4.25,2.14,4.61,4.61,0,0,1-3.89-2,8.61,8.61,0,0,1-1.44-5.3,8.84,8.84,0,0,1,2-6.24,5.18,5.18,0,0,1,3.75-1.76,4.39,4.39,0,0,1,3.25,1.26,6.52,6.52,0,0,1,1.7,4.31h-9.4c0,2.81.54,4.92,1.52,6.33a3.65,3.65,0,0,0,3.14,1.75q3,0,4.89-3.75Zm-2.58-5.3q-.4-3.72-3.45-3.75-2.7,0-3.78,3.75Z" transform="translate(-175.46 -235.49)"/><path class="cls-14" d="M311.14,398.3h-.64c-.26-1.5-.63-2.44-1.12-2.81a5.61,5.61,0,0,0-3.16-.58h-4.28a1.12,1.12,0,0,0-.91.29,1.86,1.86,0,0,0-.2,1v7.48h4.75a3.09,3.09,0,0,0,2.28-.62,5.87,5.87,0,0,0,.62-2.52h.73v7.3h-.73a5.51,5.51,0,0,0-.71-2.61,3.44,3.44,0,0,0-2.19-.47l-4.75,0v7.15a3.11,3.11,0,0,0,.73,2.4,4.31,4.31,0,0,0,2.23.62v.58h-7.71v-.58a3.79,3.79,0,0,0,2.32-.8,4,4,0,0,0,.58-2.63V397.54a3.22,3.22,0,0,0-.76-2.52,4.43,4.43,0,0,0-2.14-.52v-.59h15Z" transform="translate(-175.46 -235.49)"/><path class="cls-14" d="M318.73,415.47h-6.65v-.53a3.28,3.28,0,0,0,2-.7,2.8,2.8,0,0,0,.56-2V397.42c0-1.52-.6-2.28-1.79-2.28-.15,0-.42,0-.79.06v-.56a31,31,0,0,0,4.19-1.43V412.4a2.68,2.68,0,0,0,.56,2,3.32,3.32,0,0,0,2,.58Z" transform="translate(-175.46 -235.49)"/><path class="cls-14" d="M331.77,414.15a3.15,3.15,0,0,1-2.44,1.56c-.85,0-1.32-.95-1.4-2.85q-3.14,2.85-4.72,2.85a2.58,2.58,0,0,1-2-.82,3.35,3.35,0,0,1-.88-2.44,4.68,4.68,0,0,1,2-3.78,31.32,31.32,0,0,1,5.48-2.87l.09-1.84c.1-1.9-.81-2.84-2.73-2.84a3.05,3.05,0,0,0-1.61.46,1.38,1.38,0,0,0-.85,1.15q0-.15.12,1.14a1.5,1.5,0,0,1-.2,1,.86.86,0,0,1-.74.38q-1,0-1-1.32a3,3,0,0,1,1.05-2.17,4.77,4.77,0,0,1,3.49-1.29c1.8,0,3,.61,3.51,1.82a9.55,9.55,0,0,1,.38,3.31v6.12c0,1.55.42,2.32,1.26,2.32a2.1,2.1,0,0,0,1.18-.56ZM327.9,411v-4.4q-5.62,2.2-5.63,4.66v.09c0,1.64.74,2.54,2.2,2.7a3.69,3.69,0,0,0,2.26-.82A2.59,2.59,0,0,0,327.9,411Z" transform="translate(-175.46 -235.49)"/><path class="cls-14" d="M341.23,402.14c0,.69-.29,1-.88,1a2.37,2.37,0,0,1-1.14-.35,1.76,1.76,0,0,0-1-.36c-.37,0-.87.5-1.49,1.38a4.13,4.13,0,0,0-.91,2.14l0,6.24a2.72,2.72,0,0,0,.79,2.26,3.43,3.43,0,0,0,1.9.49v.5h-6.62V415a3.63,3.63,0,0,0,1.76-.64,2.57,2.57,0,0,0,.59-1.91v-7.5q0-2.25-1.44-2.25a3.3,3.3,0,0,0-.85.09v-.5c.86-.31,2.15-.87,3.87-1.67v3.75l.32-.5a25.49,25.49,0,0,1,1.93-2.52,2.42,2.42,0,0,1,1.7-.82C340.75,400.5,341.23,401.05,341.23,402.14Z" transform="translate(-175.46 -235.49)"/><path class="cls-14" d="M353.12,410.49a8.47,8.47,0,0,1-1.67,3.08,5.33,5.33,0,0,1-4.24,2.14,4.63,4.63,0,0,1-3.9-2,8.61,8.61,0,0,1-1.44-5.3,8.89,8.89,0,0,1,2.05-6.24,5.18,5.18,0,0,1,3.75-1.76,4.42,4.42,0,0,1,3.26,1.26,6.62,6.62,0,0,1,1.7,4.31h-9.41q.06,4.22,1.53,6.33a3.63,3.63,0,0,0,3.13,1.75q3,0,4.89-3.75Zm-2.57-5.3q-.42-3.72-3.46-3.75-2.7,0-3.78,3.75Z" transform="translate(-175.46 -235.49)"/><line class="cls-15" x1="161.1" y1="137.73" x2="150" y2="122.15"/><polyline class="cls-15" points="142.69 124.76 143.19 125.6 153.22 142.11"/></svg>